<?xml version="1.0" encoding="utf-8"?>
<!-- Generator: Adobe Illustrator 15.0.0, SVG Export Plug-In . SVG Version: 6.00 Build 0)  -->
<!DOCTYPE svg PUBLIC "-//W3C//DTD SVG 1.1//EN" "http://www.w3.org/Graphics/SVG/1.1/DTD/svg11.dtd">
<svg version="1.1" id="Calque_1" xmlns:amcharts="http://amcharts.com/ammap"
	 xmlns="http://www.w3.org/2000/svg" xmlns:xlink="http://www.w3.org/1999/xlink" x="0px" y="0px" width="612px" height="792px"
	 viewBox="0 0 612 792" enable-background="new 0 0 612 792" xml:space="preserve">
<defs>
	
	
		<amcharts:ammap  bottomLatitude="41.366975" rightLongitude="9.560553" topLatitude="51.089515" leftLongitude="-5.185287" projection="mercator">
		</amcharts:ammap>
</defs>
<g>
	<path id="FR-75" fill="#CCCCCC" stroke="#FFFFFF" stroke-width="0.5" d="M215.524,121.041l14.72,0.163l3.933,10.734l0,0
		l9.728,9.383l-26.515,0.532l0,0l-22.232-9.177L215.524,121.041z"/>
	<path id="FR-77" fill="#CCCCCC" stroke="#FFFFFF" stroke-width="0.5" d="M372.451,64.911l19.309,4.628l0.553,22.37l20.316,18.969
		l8.418-2.539l5.041,10.489l8.068-5.245l3.225,14.544l16.334,8.85l5.041-3.769l0,0l0.404,9.833l-17.545,1.352l8.367,4.711
		l-10.234,8.194l15.428,5.204l-3.578,26.384l17.389-2.866l5.297,7.62l0,0l-19.865,11.799l3.379,7.376l-15.576,3.523l6.551,9.586
		l-11.391,2.745l6.602,22.986l0,0l-76.773,7.866l-6.705,13.847l6.705,14.094l-23.039,22.043l0,0l-24.6,8.438l-4.283-9.873
		l-13.11,0.49l3.731,5.449l-10.18,5.574l-54.798-0.125l16.586-19.337l-3.579-9.67l-17.191-5.489l-4.086-14.258l0,0l14.669-18.969
		l15.173-2.951l-9.072-7.17l-1.01-29.704l15.325-37.406l0,0l8.772-18.233l-3.934-11.185l0,0l-7.561-20.771l9.226-12.292
		l-10.939-19.953l0,0l8.271-17.659l0,0l8.921-7.374l13.306,11.389l11.648,0.82l11.745-9.218l9.123,6.842l24.502-5.489l3.932,5.285
		l16.531-3.647L372.451,64.911z"/>
	<path id="FR-78" fill="#CCCCCC" stroke="#FFFFFF" stroke-width="0.5" d="M43.773,110.51l3.731-9.875l-10.183,0.696l-4.64-20.076
		l8.421,0.739l4.436-9.015l20.617,2.131l0,0l23.997,8.481l22.431-8.194l9.529,15.282l6.652-7.908l24.15,12.906l20.366-5.04
		l17.644,17.086l-0.807,11.103l0,0l-12.051,16.878l10.437,19.832l0,0l-19.057,7.25l-1.261,10.531l-17.845,9.587l10.688,11.185
		l-9.324,15.038l-17.139-0.78l8.972,8.811l-11.795,17.371l0,0l-10.939,4.507l-14.267-6.72l-3.025-22.248l-38.212-27.819
		l-1.208-45.682L43.773,110.51z"/>
	<path id="FR-91" fill="#CCCCCC" stroke="#FFFFFF" stroke-width="0.5" d="M188.502,155.538l23.492,6.146l0,0l22.783,6.226
		l21.021-5.53l11.948,12.127l0,0l-15.325,37.406l1.01,29.704l9.072,7.17l-15.173,2.951l-14.669,18.969l0,0l-15.729-4.343
		l-17.589,8.727l-8.822-11.635l-8.271,11.635l-35.489,3.073l0,0l-7.559-5.981l4.133-23.23l-10.385-1.148l-1.208-13.273l0,0
		l11.795-17.371l-8.972-8.811l17.139,0.78l9.324-15.038l-10.688-11.185l17.845-9.587l1.261-10.531L188.502,155.538z"/>
	<path id="FR-92" fill="#CCCCCC" stroke="#FFFFFF" stroke-width="0.5" d="M207.052,108.133l11.243,2.459l-2.771,10.448l0,0
		l-20.366,11.635l22.232,9.177l0,0l-5.396,19.831l0,0l-23.492-6.146l0,0l-10.437-19.832l12.051-16.878l0,0L207.052,108.133z"/>
	<path id="FR-93" fill="#CCCCCC" stroke="#FFFFFF" stroke-width="0.5" d="M263.311,92.074l10.939,19.953l-9.226,12.292l7.561,20.771
		l0,0l-13.006-12.25l-25.403-0.902l0,0l-3.933-10.734l-14.72-0.163l0,0l2.771-10.448l-11.243-2.459l0,0l17.643-6.063l15.325,4.957
		L263.311,92.074z"/>
	<path id="FR-94" fill="#CCCCCC" stroke="#FFFFFF" stroke-width="0.5" d="M234.177,131.938l25.403,0.902l13.006,12.25l0,0
		l3.934,11.185l-8.772,18.233l0,0l-11.948-12.127l-21.021,5.53l-22.783-6.226l0,0l5.396-19.831l0,0l26.515-0.532L234.177,131.938z"
		/>
	<path id="FR-95" fill="#CCCCCC" stroke="#FFFFFF" stroke-width="0.5" d="M86.069,35.165l7.562,1.966l0.352,11.187l19.61,4.383
		l34.886-3.033l16.531-8.93l18.756,12.127l10.028-4.098l1.816,7.17l18.097-9.014l36.951,20.692l13.361-4.631l7.562,11.431l0,0
		l-8.271,17.659l0,0l-23.291,14.954l-15.325-4.957l-17.643,6.063l0,0l-16.935,10.695l0,0l0.807-11.103l-17.644-17.086l-20.366,5.04
		l-24.15-12.906l-6.652,7.908l-9.529-15.282l-22.431,8.194l-23.997-8.481l0,0L86.069,35.165z"/>
</g>
</svg>
